<?xml version="1.0" encoding="utf-8"?>
<!-- Generator: Adobe Illustrator 20.1.0, SVG Export Plug-In . SVG Version: 6.00 Build 0)  -->
<svg version="1.1" id="Layer_1" xmlns="http://www.w3.org/2000/svg" xmlns:xlink="http://www.w3.org/1999/xlink" x="0px" y="0px"
	 viewBox="0 0 181.4 30.1" style="enable-background:new 0 0 181.4 30.1;" xml:space="preserve">
<style type="text/css">
	.st0{fill:#034EA2;}
</style>
<path class="st0" d="M92.2,7.1C91,0,69.7-2.2,44.7,2.2C34.2,4,24.7,6.7,17.4,9.7c1.1,0,2,0.3,2.5,0.8c0.4,0.4,0.6,0.9,0.6,1.6v0.7
	H18v-0.6c0-0.5-0.3-0.8-0.9-0.8c-0.5,0-0.7,0.2-0.8,0.6c0,0.1,0,0.3,0,0.5c0.3,1.1,3.9,1.7,4.3,3.7c0.1,0.3,0.1,0.8,0,1.6
	C20.4,19.4,19,20,17.2,20c-2.5,0-3.5-1.2-3.5-2.8v-0.8h2.6l0,1c0,0.5,0.4,0.8,0.9,0.8c0.5,0,0.8-0.2,0.9-0.6c0-0.2,0.1-0.5,0-0.7
	c-0.5-1.2-3.9-1.8-4.3-3.8c-0.1-0.4-0.1-0.8,0-1.3c0-0.3,0.1-0.5,0.2-0.7c-8.2,3.8-13,8-12.3,11.7c1.2,7.1,22.5,9.3,47.5,4.9
	c11-1.9,20.9-4.8,28.4-8c-0.1,0-0.2,0-0.3,0c-1.7,0-3.2-0.6-3.4-2.4c0-0.3,0-0.5,0-0.6l0-4c0-0.2,0-0.5,0-0.6
	c0.2-1.7,1.5-2.4,3.4-2.4c1.4,0,3.2,0.4,3.4,2.4c0,0.2,0,0.5,0,0.6c0,0,0,0,0,0v0.4h-2.5v-0.6v0c0,0,0-0.2,0-0.4
	c0-0.2-0.2-0.7-0.9-0.7c-0.7,0-0.9,0.5-0.9,0.7c0,0.1,0,0.3,0,0.4V17c0,0.2,0,0.3,0,0.4c0,0.1,0.1,0.7,0.9,0.7
	c0.8,0,0.9-0.6,0.9-0.7c0-0.1,0-0.3,0-0.4v-1.4h-1v-1.5h3.4v2.6c0,0.2,0,0.3,0,0.6c0,0.5-0.2,0.8-0.4,1.2
	C88.2,14.8,92.8,10.7,92.2,7.1z M27.4,19.6l-1.3-8.5h0l-1.3,8.5h-2.6l1.8-9.6h4.3l1.8,9.6H27.4z M40.1,19.6L40,11.3h0l-1.6,8.4H36
	l-1.5-8.4h0l-0.1,8.4h-2.5l0.2-9.6h4l1.2,7.1h0.1l1.2-7.1h4l0.2,9.6H40.1z M51.7,17.8c-0.3,1.9-2.1,2.2-3.4,2.2
	c-2.1,0-3.5-0.9-3.5-2.8l0-0.8h2.6v0.9c0,0.5,0.4,0.8,0.9,0.8c0.5,0,0.8-0.2,0.9-0.6c0-0.2,0.1-0.5,0-0.7c-0.5-1.2-3.9-1.8-4.3-3.7
	c-0.1-0.4-0.1-0.8,0-1.3c0.3-1.8,2-2.1,3.3-2.1c1.2,0,2.1,0.3,2.6,0.8c0.4,0.4,0.6,0.9,0.6,1.6v0.7h-2.4v-0.6c0-0.5-0.3-0.8-0.8-0.8
	c-0.5,0-0.7,0.2-0.8,0.6c0,0.1,0,0.3,0,0.5c0.3,1.1,3.9,1.7,4.3,3.7C51.7,16.5,51.8,17,51.7,17.8z M60.7,16.9c0,0.2,0,0.5,0,0.6
	c-0.1,1.6-1.3,2.4-3.4,2.4c-2.1,0-3.2-0.8-3.4-2.4c0-0.1,0-0.5,0-0.6V10h2.5v7.1c0,0.2,0,0.3,0,0.4c0,0.2,0.2,0.7,0.9,0.7
	c0.7,0,0.9-0.5,0.9-0.7c0-0.1,0-0.2,0-0.4V10h2.5V16.9z M71.4,19.5h-3.5l-2.3-7.6h0l0.1,7.6h-2.4V10h3.6l2.1,7.3h0L68.9,10h2.4V19.5
	z"/>
<g>
	<g>
		<path class="st0" d="M156.2,5h5.8c2.4,0,4.1,0.9,5.1,2.9c0.8,1.6,0.8,5.4,0.8,6.1c0,4.1-0.4,6.5-1.2,7.7c-1,1.7-2.9,2.5-6.2,2.5
			h-4.3V5z M158.6,22h2.3c3.4,0,4.6-1.3,4.6-5.7v-3.9c0-3.9-1.2-5.3-3.7-5.3h-3.2V22z"/>
		<path class="st0" d="M145.3,18.5v0.6c0,2.6,1.6,3.4,3.2,3.4c1.9,0,3.4-0.8,3.4-3.1c0-4.2-8.5-3.8-8.5-9.5c0-3.4,2.4-5.2,5.6-5.2
			c3.5,0,5.4,1.7,5.2,5.6h-2.5c0-2.1-0.6-3.5-2.9-3.5c-1.4,0-2.9,0.7-2.9,2.8c0,4.2,8.5,3.6,8.5,9.7c0,4-2.8,5.3-5.9,5.3
			c-5.6,0.1-5.6-4.3-5.5-6.1H145.3z"/>
		<g>
			<polygon class="st0" points="121.1,4.6 121.1,14.9 123.6,14.9 123.6,10.7 125.8,10.7 125.8,8.6 123.6,8.6 123.6,4.6 			"/>
			<path class="st0" d="M111.7,24.1v-8.4h11.9v8.4H111.7z M121.2,22.1v-4.3h-7v4.3H121.2z"/>
			<polygon class="st0" points="140.8,4.6 140.8,14.9 138.3,14.9 138.3,10.7 135.1,10.7 135.1,8.6 138.2,8.6 138.2,4.6 			"/>
			<path class="st0" d="M134.5,24.7c-3.6,0-6.6-2.1-6.6-4.8c0-2.6,2.9-4.8,6.6-4.8c3.6,0,6.6,2.1,6.6,4.8
				C141.1,22.6,138.2,24.7,134.5,24.7z M138.6,19.9c0-1.5-1.8-2.7-4.1-2.7c-2.3,0-4.1,1.2-4.1,2.7c0,1.5,1.8,2.7,4.1,2.7
				C136.8,22.6,138.6,21.4,138.6,19.9z"/>
			<path class="st0" d="M115.1,5c0,0-0.3,5.6,4.2,7.9l-1.3,1.8c0,0-3.3-2.2-4.1-4.6c-0.7,2.4-4,4.6-4,4.6l-1.3-1.8
				c4.5-2.3,4.2-7.9,4.2-7.9H115.1z"/>
			<path class="st0" d="M130.8,10.1c-0.7,2.4-3.8,4.4-3.8,4.4l-1.3-1.8c4.2-2.1,3.9-7.7,3.9-7.7h2.3c0,0-0.3,5.6,3.9,7.7l-1.3,1.8
				C134.6,14.4,131.5,12.4,130.8,10.1z"/>
		</g>
		<path class="st0" d="M171.4,18.5v0.6c0,2.6,1.6,3.4,3.2,3.4c1.9,0,3.4-0.8,3.4-3.1c0-4.2-8.5-3.8-8.5-9.5c0-3.4,2.4-5.2,5.6-5.2
			c3.5,0,5.4,1.7,5.2,5.6h-2.5c0-2.1-0.6-3.5-2.9-3.5c-1.4,0-2.9,0.7-2.9,2.8c0,4.2,8.5,3.6,8.5,9.7c0,4-2.7,5.3-5.9,5.3
			c-5.6,0.1-5.6-4.3-5.5-6.1H171.4z"/>
	</g>
</g>
</svg>
